<svg width="26" height="26" viewBox="0 0 26 26" fill="none" xmlns="http://www.w3.org/2000/svg">
<g clip-path="url(#clip0_412_3215)">
<path d="M22.4213 17.4963L22.4304 17.5046L22.4401 17.512C22.6983 17.7101 22.9068 17.9655 23.0492 18.2581C23.1915 18.5507 23.2638 18.8725 23.2602 19.1978L23.2601 19.1978L23.2602 19.2051C23.2675 19.7438 23.0813 20.2673 22.7356 20.6805C22.3898 21.0937 21.9074 21.3693 21.3759 21.4572L21.3758 21.4572L21.3715 21.4579L10.8308 23.3604L5.15667 18.7087L5.07373 18.6407H4.96647H3.24772C3.05102 18.6407 2.86237 18.5625 2.72328 18.4234C2.58419 18.2844 2.50605 18.0957 2.50605 17.899C2.50605 17.7023 2.58419 17.5137 2.72328 17.3746C2.86237 17.2355 3.05102 17.1573 3.24772 17.1573H5.58872L11.183 21.7251L11.2903 21.8128L11.4267 21.7879L21.1142 20.017L21.1142 20.0171L21.1202 20.0159C21.3084 19.9775 21.4771 19.8743 21.5971 19.7244C21.7171 19.5744 21.7807 19.3871 21.7768 19.195L21.777 19.195L21.7765 19.1857C21.7658 18.9781 21.6814 18.7811 21.5384 18.6302L21.5237 18.6146L21.5069 18.6014C21.4154 18.5289 21.3095 18.4767 21.1963 18.4484C21.0833 18.4202 20.9657 18.4163 20.8511 18.437C20.8508 18.4371 20.8505 18.4371 20.8503 18.4372L13.7685 19.6869L13.7461 19.6909L13.7246 19.6981C13.453 19.7899 13.1685 19.8373 12.8818 19.8386L12.8818 19.8385L12.8741 19.8387C12.5864 19.8474 12.3002 19.7953 12.0341 19.6857C11.768 19.5762 11.528 19.4116 11.3299 19.2029L11.3301 19.2027L11.3213 19.1942L9.50281 17.4277C9.36412 17.2804 9.28681 17.0858 9.28681 16.8834C9.28681 16.6832 9.36243 16.4906 9.49828 16.3439C9.64254 16.2187 9.82726 16.1497 10.0186 16.1497C10.2112 16.1497 10.3972 16.2197 10.542 16.3467L12.3585 18.1632L12.3644 18.1691L12.3706 18.1747C12.5116 18.3008 12.694 18.3705 12.8831 18.3705C13.0722 18.3705 13.2547 18.3008 13.3956 18.1747L13.4049 18.1664L13.4135 18.1573C13.5395 18.0242 13.6097 17.8479 13.6097 17.6646C13.6097 17.4813 13.5395 17.305 13.4135 17.1719L13.4136 17.1718L13.4078 17.166L10.3349 14.0931L10.247 14.0053H10.1227H3.24772C3.05102 14.0053 2.86237 13.9271 2.72328 13.788C2.58419 13.6489 2.50605 13.4603 2.50605 13.2636C2.50605 13.0669 2.58419 12.8782 2.72328 12.7392C2.86237 12.6001 3.05102 12.5219 3.24772 12.5219H10.833L14.4433 16.0814C14.8475 16.4798 15.0775 17.022 15.0832 17.5895L15.0867 17.9418L15.4339 17.8822L20.5902 16.9968L20.5902 16.9969L20.5988 16.9951C20.9206 16.9301 21.2532 16.9416 21.5698 17.0286C21.8863 17.1157 22.178 17.2759 22.4213 17.4963Z" fill="#836540" stroke="white" stroke-width="0.6"/>
<path d="M15.1429 11.0608L15.1562 11.045L15.1672 11.0276C15.2199 10.9438 15.2888 10.8715 15.3699 10.8148C15.451 10.7581 15.5427 10.7182 15.6394 10.6975C15.7362 10.6767 15.8361 10.6756 15.9333 10.6941C16.0285 10.7121 16.1191 10.7487 16.2002 10.8016C16.8694 11.2913 17.6808 11.5481 18.51 11.5323C18.9363 11.5317 19.316 11.3952 19.593 11.2182C19.7317 11.1296 19.8522 11.026 19.9415 10.9155C20.0243 10.8131 20.1091 10.6687 20.1091 10.5032C20.1091 10.4289 20.1064 10.3089 20.0526 10.1773C19.9974 10.042 19.8996 9.92049 19.7524 9.81227C19.4733 9.607 18.986 9.4284 18.1456 9.27082C17.3545 9.12249 16.5541 8.77599 15.958 8.30765C15.3577 7.83601 15.0049 7.27564 15.0049 6.7011C15.0049 5.47593 15.9038 4.53113 17.3584 4.28869L17.6091 4.24691V3.99277V2.84693C17.6091 2.65023 17.6872 2.46159 17.8263 2.3225C17.9654 2.18341 18.1541 2.10527 18.3508 2.10527C18.5475 2.10527 18.7361 2.18341 18.8752 2.3225C19.0143 2.46159 19.0924 2.65023 19.0924 2.84693V4.04485V4.29375L19.3371 4.3397C19.8709 4.43997 20.3819 4.63737 20.8445 4.92206C20.9231 4.97551 20.9899 5.04468 21.0406 5.12521C21.0922 5.20718 21.1259 5.29909 21.1396 5.39496C21.1533 5.49083 21.1467 5.5885 21.1201 5.68163C21.0935 5.77476 21.0477 5.86125 20.9854 5.93546L20.9683 5.95592L20.955 5.97909C20.909 6.05939 20.8461 6.12872 20.7706 6.18225C20.6951 6.23579 20.6089 6.27225 20.5179 6.2891L20.5725 6.58408L20.5179 6.2891C20.4269 6.30595 20.3333 6.30279 20.2437 6.27983C20.154 6.25688 20.0705 6.21468 19.9988 6.15617L19.9821 6.14256L19.9636 6.13147C19.4002 5.79284 18.7545 5.61584 18.0973 5.61979C17.7197 5.60045 17.3439 5.68486 17.0108 5.86395L16.9719 5.88484L16.9407 5.91605C16.9176 5.93913 16.902 5.95385 16.8848 5.97011C16.8713 5.98284 16.8567 5.9965 16.8369 6.01585C16.801 6.05077 16.7574 6.09562 16.7183 6.15146C16.6296 6.27816 16.5924 6.42039 16.5924 6.59693C16.5924 6.87287 16.7669 7.11058 17.0813 7.30229C17.392 7.49172 17.8873 7.66948 18.6546 7.82821C19.4017 7.98278 20.1722 8.20771 20.7519 8.6081C21.3148 8.9969 21.6966 9.54829 21.6966 10.399L21.6966 10.4021C21.7003 10.7595 21.6188 11.1126 21.459 11.4323C21.2991 11.752 21.0655 12.029 20.7774 12.2405L20.7773 12.2403L20.7683 12.2475C20.3575 12.5739 19.8678 12.7861 19.3487 12.8626L19.0924 12.9004V13.1594V14.3053C19.0924 14.502 19.0143 14.6906 18.8752 14.8297C18.7361 14.9688 18.5475 15.0469 18.3508 15.0469C18.1541 15.0469 17.9654 14.9688 17.8263 14.8297C17.6872 14.6906 17.6091 14.502 17.6091 14.3053V13.1594V12.9093L17.3631 12.8643C16.6019 12.7251 15.8797 12.4231 15.2458 11.9792C15.1778 11.9276 15.1208 11.8629 15.0782 11.7889C15.035 11.7136 15.0075 11.6304 14.9976 11.5441C14.9876 11.4579 14.9954 11.3706 15.0204 11.2875C15.0454 11.2044 15.0871 11.1272 15.1429 11.0608Z" fill="#836540" stroke="white" stroke-width="0.6"/>
</g>
<defs>
<clipPath id="clip0_412_3215">
<rect width="25" height="25" fill="white" transform="translate(0.643555 0.763611)"/>
</clipPath>
</defs>
</svg>
