<svg width="30" height="19" viewBox="0 0 30 19" fill="none" xmlns="http://www.w3.org/2000/svg">
<path fill-rule="evenodd" clip-rule="evenodd" d="M7.09463 0.0828343C6.82288 0.116103 6.30408 0.248651 5.94175 0.377378C4.73762 0.804996 4.42127 0.872258 3.72961 0.847553C3.17268 0.827658 3.04619 0.799264 2.6523 0.605317C2.28015 0.422109 2.18008 0.397404 2.04991 0.456761C1.96407 0.495827 1.87842 0.595568 1.85952 0.678311C1.79594 0.956714 1.6267 3.25858 1.6267 3.84424C1.6267 4.96714 1.89852 6.70719 2.24814 7.82225C2.3372 8.10645 2.46982 8.63539 2.54274 8.99772C2.73056 9.93076 3.18249 10.8255 3.79984 11.4866L4.26316 11.9827L3.81782 12.2988C2.82767 13.0016 1.7831 14.2918 1.29915 15.4096C1.01107 16.0751 0.884185 16.4954 0.741689 17.2563C0.610723 17.9555 0.610854 18.2825 0.742019 18.4137C0.972528 18.6441 1.36319 18.4525 1.36319 18.1089C1.36319 17.5525 1.86979 15.6978 2.08476 15.4671C2.1117 15.4381 2.49366 15.6308 2.93347 15.8953L3.73317 16.3761L3.73396 17.3002C3.73488 18.3107 3.79635 18.5172 4.09616 18.5172C4.42924 18.5172 4.45948 18.4048 4.45948 17.1667C4.45948 16.2773 4.43913 16.0028 4.36771 15.9314C4.31732 15.881 3.88687 15.6083 3.41122 15.3256C2.93564 15.0427 2.5328 14.7891 2.516 14.762C2.46481 14.6792 3.0952 13.8984 3.58844 13.4339C3.84477 13.1924 4.23246 12.874 4.45006 12.7263L4.84566 12.4576L5.45959 12.7523C6.37734 13.193 6.768 13.2789 7.85223 13.2786C8.90234 13.2784 9.35644 13.1725 10.2631 12.7167L10.7699 12.4619L11.1556 12.7313C11.7891 13.1737 12.2778 13.6271 12.7292 14.1914C13.0641 14.6099 13.1379 14.7407 13.0732 14.8004C13.0279 14.8423 12.6054 15.1065 12.1343 15.3876C11.6633 15.6687 11.2561 15.932 11.2295 15.9727C11.2029 16.0134 11.1807 16.5564 11.1801 17.1794C11.1791 18.2757 11.1838 18.3154 11.3255 18.4146C11.519 18.5502 11.6134 18.544 11.772 18.3854C11.8914 18.2661 11.9038 18.1656 11.9041 17.3149L11.9044 16.3761L12.6726 15.915C13.0951 15.6613 13.4622 15.4451 13.4883 15.4343C13.6335 15.3748 14.1593 17.0475 14.2481 17.8515C14.2783 18.1255 14.3373 18.3156 14.4168 18.395C14.661 18.6393 14.9674 18.493 15.0277 18.1033C15.1704 17.182 15.224 16.9253 15.373 16.4525C15.4661 16.1568 15.5996 15.8023 15.6695 15.6645L15.7968 15.414L16.0078 15.5426C16.1239 15.6133 16.4856 15.8318 16.8117 16.0283L17.4046 16.3855L17.4376 17.388C17.4637 18.1817 17.4911 18.4035 17.5693 18.4529C17.7261 18.5517 17.9349 18.5275 18.0532 18.3967C18.1457 18.2944 18.1622 18.1054 18.1622 17.1484V16.0205L17.9481 15.8637C17.8303 15.7774 17.3866 15.5017 16.9621 15.251C16.5375 15.0002 16.1892 14.7643 16.188 14.7267C16.1843 14.6072 17.0173 13.6136 17.3826 13.3018C17.5758 13.1369 17.9039 12.883 18.1115 12.7377L18.489 12.4735L19.0667 12.7609C19.9819 13.2162 20.5681 13.3356 21.683 13.294C22.7332 13.2548 23.1094 13.1607 23.9264 12.7325L24.439 12.4639L24.8392 12.7356C25.3657 13.0932 26.2579 13.9544 26.5675 14.4039C26.7032 14.6009 26.8019 14.7731 26.7868 14.7865C26.7717 14.7999 26.374 15.0408 25.903 15.3217C25.4319 15.6027 24.9946 15.8915 24.9313 15.9635C24.8315 16.0767 24.816 16.2394 24.816 17.174C24.816 18.1659 24.8267 18.2644 24.9477 18.3854C25.0902 18.5279 25.2523 18.5516 25.4089 18.4529C25.4871 18.4035 25.5145 18.1816 25.5406 17.3876L25.5736 16.3846L26.3633 15.9085C26.7976 15.6467 27.1728 15.4447 27.1972 15.4597C27.3771 15.571 27.8336 17.1225 27.9462 18.0058C27.9914 18.3601 28.1135 18.5172 28.3436 18.5172C28.6377 18.5172 28.7212 18.2759 28.6378 17.6672C28.5116 16.7458 28.2024 15.724 27.8276 14.9904C27.3001 13.9575 26.1693 12.7303 25.0857 12.0143C25.071 12.0046 25.2058 11.8407 25.3853 11.6501C25.7514 11.2612 26.0443 10.8508 26.2623 10.4213L26.4092 10.132L26.5859 10.4856C26.7935 10.9012 27.235 11.2651 27.7387 11.4361C27.9503 11.5079 28.3702 11.5632 28.8603 11.5839L29.6436 11.6168L29.6081 10.966C29.5683 10.2364 29.4157 9.72298 29.1041 9.26993C28.7293 8.72525 27.9964 8.37188 27.2415 8.37188C26.9388 8.37188 26.8582 8.35034 26.8582 8.2695C26.8582 8.21324 26.9684 7.85005 27.103 7.46249C27.3381 6.78585 27.3478 6.72254 27.3492 5.86849C27.3505 5.13375 27.3243 4.88749 27.199 4.4521C26.6425 2.51843 25.0383 1.1027 22.9042 0.661907C22.0064 0.476525 20.5379 0.505446 19.7104 0.724953C18.1099 1.14941 16.7865 2.20445 16.1237 3.58441C15.7156 4.43398 15.6294 4.83927 15.6307 5.90143C15.6317 6.76595 15.645 6.86227 15.843 7.43904C15.9591 7.77745 16.0541 8.12582 16.0541 8.21311C16.0541 8.36101 16.0301 8.37188 15.7038 8.37188C14.3373 8.37188 13.4613 9.34563 13.3698 10.9661L13.333 11.6169L14.1171 11.5831C15.3595 11.5296 15.9344 11.2668 16.3599 10.5581L16.5668 10.2134L16.7804 10.5937C17.0271 11.0331 17.5839 11.7542 17.7855 11.8954C17.8616 11.9486 17.9106 12.0019 17.8948 12.0138C17.8788 12.0258 17.6546 12.1895 17.3965 12.3778C16.286 13.1876 15.1664 14.6854 14.8018 15.8491C14.7564 15.994 14.7048 16.1377 14.6871 16.1683C14.6695 16.199 14.5433 15.9401 14.4067 15.5928C13.9426 14.4127 12.9445 13.1429 11.8295 12.3137L11.3705 11.9724L11.7298 11.605C12.4317 10.8872 12.9433 9.88346 13.1182 8.88039C13.1723 8.57011 13.3184 7.9656 13.4429 7.53706C13.9226 5.88562 14.1423 3.78159 13.9162 3.00389C13.7521 2.43938 13.6011 2.17527 13.1858 1.7267C11.9916 0.436865 9.5604 -0.219285 7.09463 0.0828343ZM9.48437 0.827789C11.7266 1.16581 13.1451 2.18357 13.2676 3.54251C13.3345 4.28358 13.0663 6.33307 12.8029 7.09377L12.7235 7.32335L12.1384 6.48063C11.3928 5.40688 11.128 5.07795 11.0093 5.07795C10.9569 5.07795 10.5809 5.17854 10.1737 5.30147C9.30426 5.564 8.35568 5.73673 7.78339 5.73673C7.23916 5.73673 6.42326 5.58851 5.57942 5.33639C4.42878 4.9925 4.56798 4.92827 3.66018 6.22252C3.21662 6.85489 2.86706 7.29509 2.84934 7.24364C2.67266 6.7313 2.45895 5.41597 2.38187 4.36672C2.33648 3.74904 2.46191 1.53309 2.54769 1.43572C2.57285 1.40719 2.67589 1.41523 2.77668 1.4535C2.87747 1.49185 3.16991 1.55298 3.42657 1.58941C4.18259 1.6966 4.67517 1.60008 6.28195 1.02984C7.11465 0.734308 8.3479 0.656505 9.48437 0.827789ZM23.0702 1.44487C24.1089 1.74548 24.8143 2.1696 25.4908 2.9004C26.5316 4.02461 26.9101 5.6364 26.4632 7.04232C26.2839 7.6065 26.3607 7.59741 25.3101 7.17816C23.5935 6.49322 22.4289 5.48297 21.9573 4.26981C21.7558 3.75142 21.7075 3.697 21.4477 3.69548C21.2342 3.69423 21.1741 3.76742 21.0328 4.20091C20.6472 5.38303 19.3865 6.47293 17.5515 7.21037C16.6198 7.58483 16.6755 7.59392 16.5009 7.03856C16.2813 6.33972 16.2969 5.25582 16.5373 4.5166C16.964 3.20423 17.9666 2.16361 19.2994 1.64956C20.1448 1.32353 20.5727 1.25745 21.6538 1.28611C22.3569 1.30475 22.7308 1.34665 23.0702 1.44487ZM21.9277 5.69977C22.66 6.67906 24.0424 7.56289 25.6889 8.10454C25.9334 8.18505 26.1335 8.27932 26.1335 8.31417C26.1335 8.62478 25.8753 9.50229 25.6406 9.9888C25.0426 11.2287 23.9261 12.1263 22.5293 12.4901C22.042 12.617 20.9519 12.6147 20.4021 12.4856C19.4711 12.2669 18.4354 11.6158 17.8661 10.8912C17.2973 10.1673 16.8036 8.96235 16.857 8.42814C16.8763 8.23492 16.9076 8.21219 17.3522 8.06824C18.0048 7.85697 18.974 7.39569 19.5549 7.01998C20.1431 6.6396 20.9148 5.90413 21.2401 5.41399C21.4515 5.0956 21.4881 5.06695 21.5503 5.17123C21.5891 5.23625 21.7589 5.47407 21.9277 5.69977ZM6.32787 6.3077C7.00161 6.45283 8.51128 6.46799 9.1698 6.33616C9.42344 6.28537 9.89671 6.16079 10.2216 6.05934C10.5463 5.95789 10.8164 5.88081 10.8216 5.88812C10.8268 5.89543 11.2029 6.43505 11.6574 7.08724L12.4836 8.27306L12.427 8.62656C12.1403 10.4179 10.8736 11.8419 9.07098 12.3994C8.36944 12.6164 7.26914 12.6164 6.5676 12.3994C4.76061 11.8405 3.50068 10.4224 3.21056 8.6209L3.1483 8.23419L3.97244 7.05971L4.79665 5.88522L5.29416 6.03872C5.56776 6.12311 6.03293 6.2442 6.32787 6.3077ZM15.8915 9.23482C15.9482 9.41368 15.8697 9.93399 15.7513 10.1628C15.7005 10.261 15.5615 10.4158 15.4422 10.5067C15.2197 10.6765 14.5851 10.8753 14.2657 10.8753C14.0951 10.8753 14.088 10.8628 14.1249 10.6282C14.2739 9.68102 14.8261 9.12414 15.638 9.10221C15.7959 9.09793 15.8585 9.13067 15.8915 9.23482ZM28.0357 9.28996C28.4666 9.5098 28.7508 9.97721 28.8547 10.637L28.895 10.893L28.5709 10.8546C27.6973 10.7511 27.2539 10.4312 27.1262 9.81218C27.084 9.60796 27.0699 9.35973 27.0948 9.26058C27.1381 9.08837 27.1541 9.08205 27.4558 9.11775C27.6294 9.13831 27.8904 9.21578 28.0357 9.28996ZM9.69683 9.69334C8.4564 10.5391 7.26288 10.5459 5.96771 9.71475C5.73259 9.56382 5.4636 9.63596 5.40603 9.86535C5.34739 10.099 5.42329 10.2044 5.86434 10.5015C6.40784 10.8676 6.88876 11.0189 7.63035 11.0571C8.38295 11.0958 8.78968 11.016 9.43654 10.7025C10.24 10.3131 10.4852 9.98373 10.1909 9.68945C10.0256 9.52409 9.94414 9.52469 9.69683 9.69334ZM19.1277 9.74406C18.8837 10.0137 19.072 10.2954 19.7433 10.6649C20.7809 11.2361 22.0219 11.2629 23.0921 10.7372C23.8613 10.3594 24.1309 9.99671 23.8391 9.7326C23.663 9.57331 23.5332 9.59649 23.15 9.85579C22.1839 10.5093 20.7943 10.5093 19.8282 9.85579C19.4417 9.59425 19.2858 9.56935 19.1277 9.74406Z" fill="#836540"/>
</svg>
